<svg height="512pt" viewBox="0 -27 512 511" width="512pt" xmlns="http://www.w3.org/2000/svg"><path d="M67.738 315.441c0 18.707-15.164 33.871-33.867 33.871C15.164 349.313 0 334.149 0 315.442c0-18.708 15.164-33.872 33.871-33.872 18.703 0 33.867 15.164 33.867 33.871zm169.742 98.09c0 18.703-15.164 33.871-33.867 33.871-18.707 0-33.87-15.168-33.87-33.87 0-18.708 15.163-33.872 33.87-33.872 18.703 0 33.867 15.164 33.867 33.871zm104.778 0c0 18.703-15.164 33.871-33.871 33.871-18.703 0-33.867-15.168-33.867-33.87 0-18.708 15.164-33.872 33.867-33.872 18.707 0 33.87 15.164 33.87 33.871zm0 0" fill="#eda1ab"/><path d="M134.324 334.953c0 18.707-15.164 33.871-33.87 33.871s-33.872-15.164-33.872-33.87 15.164-33.872 33.871-33.872 33.871 15.164 33.871 33.871zm0 0" fill="#e26e7e"/><path d="M512 315.441c0 18.707-15.164 33.871-33.871 33.871-18.703 0-33.867-15.164-33.867-33.87 0-18.708 15.164-33.872 33.867-33.872 18.707 0 33.871 15.164 33.871 33.871zm0 0" fill="#eda1ab"/><path d="M445.418 334.953c0 18.707-15.164 33.871-33.871 33.871s-33.871-15.164-33.871-33.87 15.164-33.872 33.87-33.872 33.872 15.164 33.872 33.871zm0 0" fill="#e26e7e"/><path d="M494.887 256.559c-13.668-13.207-35.465-12.383-49.078.882-9.16 8.926-21.223 13.832-34.04 13.832a48.508 48.508 0 0 1-27.218-8.316c-14.352-9.684-18.008-29.207-8.68-43.793 14.219-22.23 22.422-48.68 22.313-77.055C397.879 64.977 335.242 1.637 258.117.516c-79.496-1.157-144.3 62.937-144.3 142.168 0 28.195 8.21 54.472 22.37 76.574 9.317 14.543 5.579 34.039-8.738 43.699a48.508 48.508 0 0 1-27.219 8.316c-12.816 0-24.878-4.906-34.039-13.832-13.613-13.265-35.414-14.09-49.078-.882-13.972 13.507-14.117 35.785-.43 49.468 22.317 22.317 51.99 34.606 83.547 34.606 33.016 0 62.91-13.621 84.372-35.531-5.989 30.832-19.051 63.593-47.559 94.66-12.95 14.113-12.008 36.05 2.105 49a34.555 34.555 0 0 0 23.438 9.125c9.375 0 18.723-3.778 25.562-11.23 37.637-41.02 55.29-84.302 63.567-123.505.98-4.648 7.59-4.648 8.57 0 8.278 39.203 25.926 82.485 63.567 123.504 6.84 7.453 16.187 11.23 25.562 11.23a34.555 34.555 0 0 0 23.438-9.124c14.109-12.95 15.054-34.887 2.101-49-28.508-31.067-41.566-63.828-47.555-94.66 21.461 21.91 51.352 35.53 84.372 35.53 31.558 0 61.23-12.288 83.546-34.605 13.684-13.683 13.543-35.96-.43-49.468zm0 0" fill="#b49cdc"/><path d="M494.887 256.559c-13.668-13.207-35.465-12.383-49.078.882-9.16 8.926-21.223 13.832-34.04 13.832a48.508 48.508 0 0 1-27.218-8.316c-14.352-9.684-18.008-29.207-8.68-43.793 14.219-22.23 22.422-48.68 22.313-77.055C397.879 64.977 335.242 1.637 258.117.516c-79.496-1.157-144.3 62.937-144.3 142.168 0 28.195 8.21 54.472 22.37 76.574 9.317 14.543 5.579 34.039-8.738 43.699a48.508 48.508 0 0 1-27.219 8.316c-12.816 0-24.878-4.906-34.039-13.832-13.613-13.265-35.414-14.09-49.078-.882-13.972 13.507-14.117 35.785-.43 49.468 22.317 22.317 51.99 34.606 83.547 34.606 33.016 0 62.91-13.621 84.372-35.531-5.989 30.832-19.051 63.593-47.559 94.66-12.95 14.113-12.008 36.05 2.105 49a34.555 34.555 0 0 0 23.438 9.125c9.375 0 18.723-3.778 25.562-11.23 37.637-41.02 55.29-84.302 63.567-123.505.98-4.648 7.59-4.648 8.57 0 8.278 39.203 25.926 82.485 63.567 123.504 6.84 7.453 16.187 11.23 25.562 11.23a34.555 34.555 0 0 0 23.438-9.124c14.109-12.95 15.054-34.887 2.101-49-28.508-31.067-41.566-63.828-47.555-94.66 21.461 21.91 51.352 35.53 84.372 35.53 31.558 0 61.23-12.288 83.546-34.605 13.684-13.683 13.543-35.96-.43-49.468zm0 0" fill="#b49cdc"/><path d="M207.684 8.93c-54.739 19.777-93.868 72.195-93.868 133.754 0 28.195 8.211 54.472 22.371 76.574 9.317 14.543 5.579 34.039-8.738 43.699a48.508 48.508 0 0 1-27.219 8.316c-12.816 0-24.878-4.906-34.039-13.832-13.613-13.265-35.414-14.09-49.078-.882-13.972 13.507-14.117 35.785-.43 49.468 22.317 22.317 51.99 34.606 83.547 34.606 33.016 0 62.91-13.621 84.372-35.531-5.989 30.832-19.051 63.593-47.559 94.66-12.95 14.113-12.008 36.05 2.105 49a34.555 34.555 0 0 0 23.438 9.125c9.375 0 18.723-3.778 25.562-11.23 36.329-39.594 54.036-81.29 62.665-119.4-76.204-63.14-106.715-259.46-43.13-318.327zM359.77 45.742c-15.817-16.918-35.688-30-58.036-37.648-8.73 6.71-14.359 17.25-14.359 29.11 0 20.269 16.43 36.702 36.703 36.702 17.328 0 31.84-12.011 35.692-28.164zm0 0" fill="#908cd6"/><path d="M212.504 64.64c0 10.79-8.746 19.54-19.54 19.54-10.792 0-19.538-8.75-19.538-19.54 0-10.792 8.746-19.542 19.539-19.542 10.793 0 19.539 8.75 19.539 19.543zm0 0" fill="#908cd6"/><path d="M199.867 169.742c0-14.437-14.691-26.14-32.82-26.14s-32.82 11.703-32.82 26.14c0 14.434 14.691 26.137 32.82 26.137s32.82-11.703 32.82-26.137zm177.906 0c0-14.437-14.691-26.14-32.82-26.14s-32.82 11.703-32.82 26.14c0 14.434 14.691 26.137 32.82 26.137s32.82-11.703 32.82-26.137zm0 0" fill="#eda1ab"/><path d="M172.535 146.379a7.5 7.5 0 0 1-7.5-7.5v-14.09a7.5 7.5 0 1 1 15 0v14.09c0 4.14-3.36 7.5-7.5 7.5zm109.93 3.281c0-16.355-11.852-17.894-26.465-17.894s-26.465 1.539-26.465 17.894c0 16.352 11.852 29.61 26.465 29.61s26.465-13.258 26.465-29.61zm57-3.281c-4.14 0-7.5-3.36-7.5-7.5v-14.09a7.5 7.5 0 1 1 15 0v14.09a7.5 7.5 0 0 1-7.5 7.5zm0 0" fill="#4e5660"/><path d="M458.586 295.27a7.502 7.502 0 0 1-5.3-12.805l6.116-6.121a7.51 7.51 0 0 1 10.61 0 7.502 7.502 0 0 1 0 10.61l-6.121 6.12a7.49 7.49 0 0 1-5.305 2.196zm0 0" fill="#908cd6"/><path d="M170.7 423.566a7.504 7.504 0 0 1-5.305-12.805l6.761-6.761c2.93-2.93 7.68-2.93 10.61 0s2.93 7.68 0 10.605l-6.762 6.762a7.484 7.484 0 0 1-5.305 2.2zm0 0" fill="#b49cdc"/></svg>